# xmcd CD database file
#
# Track frame offsets:
#	182
#	10930
#	22980
#	35197
#	46795
#	58882
#	69675
#	82967
#	96350
#	112770
#	130525
#	143907
#	157525
#	170470
#	182377
#
# Disc length: 2602 seconds
#
# Revision: 3
# Processed by: cddbd v1.5.2PL0 Copyright (c) Steve Scherf et al.
# Submitted via: CDex 1.51
#
DISCID=b40a280f
DTITLE=Sam and Dave - Soul Man
DYEAR=1987
DGENRE=Soul
TTITLE0=Soul Sister Brown Sugar
TTITLE1=Hold On I'm Comin'
TTITLE2=I Thank You
TTITLE3=Soul Man
TTITLE4=Funky Street
TTITLE5=Sweet Soul Music
TTITLE6=Funky Broadway
TTITLE7=614 5789
TTITLE8=Love The One You're With
TTITLE9=Mustang Sally
TTITLE10=How Sweet It Is (To Be Loved By You)
TTITLE11=Good Lovin'
TTITLE12=I'll Be Doggone
TTITLE13=Respect
TTITLE14=(I Can't Get No) Satisfaction
EXTD=YEAR: 1987
EXTT0=
EXTT1=
EXTT2=
EXTT3=
EXTT4=
EXTT5=
EXTT6=
EXTT7=
EXTT8=
EXTT9=
EXTT10=
EXTT11=
EXTT12=
EXTT13=
EXTT14=
PLAYORDER=
